<?xml version="1.0" encoding="UTF-8"?>
<svg version="1.1" xmlns="http://www.w3.org/2000/svg" width="204" height="192">
<path d="M0 0 C67.32 0 134.64 0 204 0 C204 63.36 204 126.72 204 192 C136.68 192 69.36 192 0 192 C0 128.64 0 65.28 0 0 Z " fill="#FEFEFD" transform="translate(0,0)"/>
<path d="M0 0 C7.32738958 5.65804478 9.42994886 12.1443549 11 21 C11.08087949 22.69532743 11.11511814 24.39332796 11.11010742 26.09057617 C11.11068649 27.07897995 11.11126556 28.06738373 11.11186218 29.08573914 C11.10975235 30.14412491 11.10764252 31.20251068 11.10546875 32.29296875 C11.1189276 34.55534806 11.13395125 36.81771851 11.15039062 39.08007812 C11.17318025 42.63060297 11.18752592 46.18012482 11.17504883 49.73071289 C11.16618949 53.16885544 11.19523521 56.60503014 11.23046875 60.04296875 C11.21823776 61.09123337 11.20600677 62.13949799 11.19340515 63.2195282 C11.30366727 69.9956704 12.69576992 74.19263842 16.61689758 79.74458313 C18.13405533 82.21860323 18.69641536 84.12430168 19 87 C17.93945312 88.74511719 17.93945312 88.74511719 16.28125 90.296875 C15.37632812 91.14572266 15.37632812 91.14572266 14.453125 92.01171875 C13.80859375 92.58535156 13.1640625 93.15898438 12.5 93.75 C11.57960937 94.63365234 11.57960937 94.63365234 10.640625 95.53515625 C7.55187232 98.35786091 5.35273794 99.88925669 1.3046875 101.16015625 C-2 101 -2 101 -4.3984375 99.19921875 C-5.05070312 98.37035156 -5.70296875 97.54148437 -6.375 96.6875 C-7.04273437 95.86636719 -7.71046875 95.04523438 -8.3984375 94.19921875 C-10 92 -10 92 -11 90 C-14.26794706 91.52757525 -17.14196766 93.4154737 -20.125 95.4375 C-30.33934374 101.91423051 -40.63045389 103.65832675 -52.6484375 101.53125 C-59.11273974 99.67800294 -64.02380955 96.28682454 -67.5078125 90.4921875 C-72.25400331 81.18965351 -73.84421875 71.74938149 -71.05859375 61.5546875 C-66.89994041 51.15153588 -60.90546484 45.13939319 -51 40 C-44.88094612 37.48884407 -38.9367422 36.38929831 -32.375 35.8125 C-31.16457031 35.6897168 -31.16457031 35.6897168 -29.9296875 35.56445312 C-25.26480487 35.11386787 -20.68553888 34.91834852 -16 35 C-16.14750804 32.24250272 -16.34102074 29.50171203 -16.5625 26.75 C-16.59923828 25.97269531 -16.63597656 25.19539063 -16.67382812 24.39453125 C-17.02711922 20.01816528 -17.02711922 20.01816528 -19.51123047 16.57592773 C-25.43999161 13.02421195 -30.16216431 13.36393338 -36.625 14.8125 C-41.75604852 17.1951938 -43.74604436 23.13707007 -46 28 C-66.32492582 26.67507418 -66.32492582 26.67507418 -69 24 C-68.30644376 14.29021263 -64.02482928 7.43430072 -57 1 C-41.59564805 -10.34909293 -15.90976739 -10.66365875 0 0 Z " fill="#070909" transform="translate(130,29)"/>
<path d="M0 0 C3.09963202 1.09576835 5.87303054 2.46045385 8.6875 4.13671875 C27.3579656 15.23760419 46.65984446 21.40026145 68.4375 21.4375 C69.0961908 21.43889984 69.75488159 21.44029968 70.43353271 21.44174194 C86.9477633 21.41298196 102.50382414 17.92132236 117.06640625 9.85546875 C119 9 119 9 123 9 C122.66107933 11.84209194 122.38403792 13.56625159 120.4609375 15.73828125 C99.53789373 31.5285184 76.91728929 36.86031852 50.8828125 33.57421875 C31.69552603 29.9627549 13.68676713 18.84760795 1.22265625 3.86328125 C0 2 0 2 0 0 Z " fill="#F89920" transform="translate(35,133)"/>
<path d="M0 0 C0.98484375 0.00902344 1.9696875 0.01804687 2.984375 0.02734375 C4.10585937 0.04474609 4.10585937 0.04474609 5.25 0.0625 C6.35939039 20.07261548 6.35939039 20.07261548 1.01953125 27.23828125 C-2.75557162 31.13005397 -6.34553434 33.2091131 -11.875 33.5625 C-16.20774421 33.00343623 -17.78235425 32.20471315 -20.75 29.0625 C-23.9921636 23.94148541 -23.42410578 17.88109722 -22.75 12.0625 C-21.00969048 7.36771153 -18.03028755 4.98471285 -13.6875 2.6875 C-9.03466927 0.56838897 -5.11834631 -0.06093269 0 0 Z " fill="#F9F9F9" transform="translate(108.75,78.9375)"/>
<path d="M0 0 C0.30329228 8.64382992 -1.20993386 14.43668987 -6.46484375 21.3984375 C-8 23 -8 23 -11 24 C-10.52343588 22.20763933 -10.04366502 20.41613103 -9.5625 18.625 C-9.29566406 17.62726563 -9.02882812 16.62953125 -8.75390625 15.6015625 C-8 13 -8 13 -7 11 C-7 9.02 -7 7.04 -7 5 C-13.27 4.67 -19.54 4.34 -26 4 C-19.48879117 -2.51120883 -8.22161222 -4.82155296 0 0 Z " fill="#F89F2E" transform="translate(170,133)"/>
<path d="M0 0 C1.26457031 0.12761719 2.52914062 0.25523437 3.83203125 0.38671875 C5.74048828 0.56654297 5.74048828 0.56654297 7.6875 0.75 C8.66332031 0.85699219 9.63914063 0.96398437 10.64453125 1.07421875 C10.64453125 1.40421875 10.64453125 1.73421875 10.64453125 2.07421875 C2.22953125 2.56921875 2.22953125 2.56921875 -6.35546875 3.07421875 C-3.35546875 0.07421875 -3.35546875 0.07421875 0 0 Z " fill="#F89713" transform="translate(150.35546875,133.92578125)"/>
</svg>
